<svg width="286" height="306" viewBox="0 0 286 306" fill="none" xmlns="http://www.w3.org/2000/svg">
<path d="M139.347 173.53C139.347 173.53 174.973 230.771 262.026 194.023C301.329 178.3 287.368 132.013 255.596 135.544C255.596 135.544 270.838 118.583 263.681 99.5046C256.516 80.4265 243.48 84.3116 235.948 71.2348C228.416 58.1579 220.89 8.87087 183.609 3.92447C183.609 3.92447 146.512 -10.9147 134.941 22.1246C134.941 22.1246 122.634 19.825 118.044 29.1937C118.044 29.1937 89.3922 37.1407 96.1891 70.7106C102.986 104.281 117.86 92.7958 106.841 124.774C95.8213 156.752 129.431 155.513 129.431 155.513C129.431 155.513 141.186 155.513 139.347 173.537V173.53Z" fill="url(#paint0_linear_164_1048)"/>
<path d="M99.9841 192.222C99.9841 192.222 105.977 185.277 109.56 182.139C113.142 179.001 117.685 172.685 145.785 171.893C173.885 171.1 209.055 163.5 209.055 163.5L219.339 170.215C219.339 170.215 236.692 166.507 248.679 175.293C260.665 184.085 259.426 192.124 268.824 226.106L230.454 241.496L233.048 251.965C233.048 251.965 233.253 262.081 223.473 272.681L143.497 280.255L99.9841 280.943V192.222Z" fill="url(#paint1_radial_164_1048)"/>
<path d="M219.648 186.731C219.648 186.731 220.152 189.824 219.233 194.062C218.313 198.301 217.489 207.401 221.807 220.648C226.125 233.896 228.509 241.934 228.509 241.934L230.436 241.495C230.436 241.495 233.385 248.099 233.371 254.743C233.358 261.025 220.241 279.828 220.241 279.828L142.185 280.313C142.185 280.313 158.258 273.382 178.458 272.052C198.658 270.722 212.524 264.806 212.708 244.581C212.892 224.357 208.894 205.403 208.894 205.403C208.894 205.403 203.384 188.71 219.641 186.718L219.648 186.731Z" fill="url(#paint2_linear_164_1048)"/>
<path d="M230.456 241.502L228.577 242.387C228.577 242.387 218.068 214.588 218.62 204.964C218.62 204.964 220.772 216.77 230.456 241.502Z" fill="url(#paint3_linear_164_1048)"/>
<path d="M230.46 230.823C230.46 230.823 242.127 235.868 260.624 216.508C260.624 216.508 245.287 238.423 230.46 230.823Z" fill="url(#paint4_linear_164_1048)" fill-opacity="0.61"/>
<path d="M219.227 171.853C219.227 171.853 235.654 167.81 247.702 176.295C259.757 184.772 261.78 199.12 263.026 203.627C259.11 187.707 257.394 181.7 248.663 175.299C246.899 174.002 245.012 172.986 243.085 172.18C242.887 172.102 242.69 172.016 242.492 171.938C242.267 171.846 242.043 171.767 241.818 171.682C241.682 171.636 241.552 171.584 241.416 171.538C230.717 167.784 219.323 170.221 219.323 170.221L209.039 163.506C209.039 163.506 208.133 164.397 209.107 165.052L219.221 171.853H219.227Z" fill="#D4E8E1" fill-opacity="0.48"/>
<path d="M219.655 186.732C219.655 186.732 220.397 190.728 219.423 195.655C218.599 199.815 218.259 209.629 221.289 218.375C224.32 227.122 229.21 242.092 229.21 242.092L227.787 242.767L220.118 218.572C220.118 218.572 217.128 204.997 218.776 196.972C220.343 189.378 219.655 186.732 219.655 186.732Z" fill="url(#paint5_linear_164_1048)"/>
<path d="M218.592 172.246C218.592 172.246 214.621 189.47 189.742 208.155C164.864 226.84 156.793 235.586 157.985 244.326C159.177 253.065 164.203 260.095 180.746 259.165C197.289 258.235 207.212 250.55 209.064 240.749L218.592 172.246Z" fill="url(#paint6_linear_164_1048)"/>
<path d="M218.658 172.266C217.745 175.574 216.24 178.667 214.565 181.641C213.734 183.135 212.794 184.563 211.868 185.998C210.874 187.387 209.913 188.802 208.837 190.132C204.628 195.524 199.786 200.404 194.542 204.787L190.537 207.985C189.196 209.046 187.834 210.061 186.485 211.103C183.788 213.18 181.112 215.29 178.469 217.438C177.141 218.506 175.854 219.614 174.546 220.701C173.273 221.821 171.965 222.915 170.725 224.075C168.206 226.348 165.801 228.759 163.636 231.341L162.832 232.317L162.097 233.339C161.851 233.68 161.599 234.014 161.368 234.361L160.721 235.429C160.258 236.123 159.951 236.896 159.583 237.637C159.4 238.01 159.304 238.41 159.161 238.79C159.025 239.176 158.882 239.563 158.821 239.963C158.385 241.548 158.46 243.179 158.698 244.804C158.95 246.449 159.386 248.06 160.047 249.561C160.707 251.054 161.545 252.476 162.696 253.622C163.833 254.769 165.161 255.732 166.639 256.44C169.588 257.868 172.953 258.392 176.29 258.543C182.984 258.798 189.856 257.901 196.027 255.221C199.112 253.898 201.959 251.991 204.267 249.547C206.631 247.15 208.252 244.051 209.007 240.736C209.014 240.703 209.048 240.677 209.082 240.683C209.116 240.69 209.137 240.722 209.137 240.762C208.531 244.129 207.026 247.372 204.71 249.947C202.415 252.541 199.534 254.586 196.408 256.047C193.282 257.54 189.931 258.484 186.54 259.093C183.141 259.689 179.695 259.932 176.235 259.846C175.799 259.827 175.37 259.827 174.934 259.794L173.64 259.656C173.211 259.604 172.775 259.578 172.346 259.506L171.059 259.263C170.194 259.139 169.357 258.851 168.512 258.621C168.083 258.523 167.681 258.32 167.273 258.169C166.864 257.992 166.442 257.874 166.053 257.652C164.446 256.892 162.989 255.811 161.742 254.533C160.482 253.256 159.563 251.677 158.862 250.058C158.167 248.427 157.731 246.711 157.486 244.981C157.241 243.251 157.186 241.391 157.683 239.674C157.758 239.229 157.915 238.816 158.065 238.403C158.221 237.991 158.337 237.558 158.535 237.165C158.93 236.385 159.277 235.566 159.767 234.846L160.455 233.732C160.7 233.372 160.966 233.031 161.225 232.684L162.001 231.642L162.839 230.653C165.08 228.032 167.531 225.621 170.092 223.354C171.359 222.201 172.673 221.114 173.967 219.994C175.295 218.919 176.596 217.812 177.938 216.757C180.608 214.628 183.311 212.544 186.029 210.487C187.391 209.459 188.767 208.45 190.108 207.408L194.126 204.263C199.398 199.966 204.274 195.176 208.531 189.87C209.62 188.566 210.594 187.17 211.602 185.795C212.549 184.379 213.502 182.971 214.347 181.49C216.05 178.555 217.596 175.482 218.542 172.213C218.549 172.174 218.59 172.154 218.624 172.161C218.658 172.174 218.678 172.207 218.672 172.239L218.658 172.266Z" fill="url(#paint7_linear_164_1048)" fill-opacity="0.56"/>
<path d="M161.099 149.46L197.188 127.86C197.188 127.86 196.085 151.976 209.032 163.5C209.032 163.5 209.168 185.631 186.721 200.333C186.721 200.333 155.454 207.618 149.596 210.468C149.596 210.468 136.302 201.787 130.105 199.14C130.105 199.14 135.294 179.086 145.483 172.639C145.483 172.639 157.238 169.193 159.301 163.762C161.365 158.331 161.093 149.454 161.093 149.454L161.099 149.46Z" fill="url(#paint8_linear_164_1048)"/>
<path d="M149.609 210.474C149.609 210.474 151.421 202.422 157.694 200.437L156.345 208.135C152.252 209.288 149.609 210.474 149.609 210.474Z" fill="url(#paint9_linear_164_1048)"/>
<path d="M147.574 173.51C150.714 176.248 155.543 176.157 158.635 179.066C159.663 179.97 160.569 181.267 160.453 182.656C160.283 181.3 159.329 180.258 158.287 179.452C155.134 176.851 150.176 176.805 147.574 173.51Z" fill="#D2773F"/>
<path d="M179.244 181.654C183.848 177.71 190.822 177.343 196.692 177.743C197.557 177.854 198.422 177.946 199.28 178.077C198.409 178.09 197.544 178.07 196.672 178.064C190.76 178.175 184.318 178.444 179.237 181.654H179.244Z" fill="#D2773F"/>
<path opacity="0.8" d="M158.671 164.934C184.966 154.72 194.426 143.183 197.682 137.438C197.007 131.869 197.191 127.813 197.191 127.813L161.102 149.414C161.102 149.414 161.375 158.291 159.311 163.722C159.154 164.135 158.93 164.541 158.671 164.934Z" fill="#B74E18"/>
<path d="M146.369 48.7103C146.369 48.7103 131.583 39.1713 114.966 53.4798C114.966 53.4798 109.224 77.5043 121.075 95.1278C121.075 95.1278 118.323 108.244 123.554 116.728C128.784 125.212 146.968 149.191 162.537 149.191C178.106 149.191 203.857 127.859 207.439 105.728C207.439 105.728 220.937 104.136 219.282 84.3965C219.282 84.3965 197.244 80.2887 184.848 56.5722C179.202 47.0331 179.611 35.1094 164.185 35.1094C148.759 35.1094 146.369 48.7103 146.369 48.7103Z" fill="url(#paint10_radial_164_1048)"/>
<path d="M134.772 45.605C129.269 45.5002 122.295 47.1708 114.96 53.48C114.96 53.48 111.923 66.2292 114.844 79.9677C115.096 56.0875 131.83 47.0136 134.772 45.5985V45.605Z" fill="url(#paint11_linear_164_1048)"/>
<path d="M116.638 83.3809C116.536 83.0861 116.536 82.7782 116.645 82.4834C117.421 80.4721 120.915 72.4727 127.685 72.4727C134.454 72.4727 137.369 75.8925 138.255 77.0456C138.432 77.2749 138.52 77.5501 138.52 77.8318V78.0414C138.52 79.1487 137.192 79.7776 136.287 79.0962C134.373 77.6484 131.328 75.9646 127.501 75.9646C120.799 75.9646 116.849 83.9575 116.849 83.9575L116.638 83.3809Z" fill="url(#paint12_linear_164_1048)"/>
<path d="M161.659 74.5498C161.659 74.5498 161.155 71.5885 163.355 70.1341C165.562 68.6796 177.542 58.5641 188.976 71.4182C188.976 71.4182 178.992 66.38 171.691 70.1603C164.39 73.9405 162.3 76.9607 161.659 74.5563V74.5498Z" fill="url(#paint13_linear_164_1048)"/>
<path d="M145.291 128.141C145.291 128.141 165.559 130.846 173.112 123.64C173.112 123.64 165.314 134.122 158.899 133.86C152.49 133.598 145.291 128.141 145.291 128.141Z" fill="url(#paint14_linear_164_1048)"/>
<path d="M139.654 125.167C139.654 125.167 144.708 127.728 147.139 127.329C149.57 126.929 152.451 124.577 154.637 125.789C154.637 125.789 156.224 124.413 163.621 124.459C171.01 124.505 175.696 121.013 175.696 121.013C175.696 121.013 170.254 129.229 156.687 129.628C143.121 130.028 139.654 125.167 139.654 125.167Z" fill="url(#paint15_radial_164_1048)"/>
<path d="M175.7 121.013C175.7 121.013 172.118 124.905 169.571 129.648C167.023 134.398 165.028 137.313 160.274 137.706C155.52 138.106 154.873 135.498 150.222 132.006C145.332 128.338 143.479 127.709 143.479 127.709C143.479 127.709 146.054 128.213 149.813 129.379C151.243 129.818 153.845 132.563 157.972 132.662C162.528 132.773 168.297 128.921 175.707 121.013H175.7Z" fill="url(#paint16_radial_164_1048)"/>
<path d="M146.53 115.005C146.53 115.005 149.731 118.628 154.43 115.32C158.258 117.272 162.344 114.527 162.344 114.527C162.344 114.527 159.388 120.05 154.43 120.05C149.472 120.05 146.53 115.012 146.53 115.012V115.005Z" fill="url(#paint17_linear_164_1048)"/>
<path d="M151.424 115.189C149.558 117.311 146.603 112.765 148.939 106.574C151.275 100.382 147.679 94.0077 147.679 94.0077L150.73 94.165C150.73 94.165 155.702 110.334 151.424 115.189Z" fill="url(#paint18_linear_164_1048)"/>
<path d="M117.716 30.0713C117.716 30.0713 120.011 17.6627 139.803 23.1398L143.153 44.7401L117.716 30.0778V30.0713Z" fill="url(#paint19_linear_164_1048)"/>
<path d="M146.379 48.599C146.379 48.599 162.405 39.8986 172.736 52.222C183.068 64.5454 190.089 71.9421 190.089 71.9421C190.089 71.9421 183.851 57.9612 179.996 49.3525C176.141 40.7438 159.517 34.2447 146.386 48.599H146.379Z" fill="url(#paint20_linear_164_1048)"/>
<path d="M181.166 3.83929C181.166 3.83929 170.732 -3.57703 154.182 2.20797C137.64 7.99296 127.158 21.8625 140.091 45.71C140.091 45.71 137.408 9.67015 181.166 3.83929Z" fill="url(#paint21_linear_164_1048)"/>
<path d="M147.688 94.0077C147.688 94.0077 150.031 98.181 148.655 104.077C147.279 109.974 144.589 114.278 147.688 116.335C150.589 118.261 152.53 117.626 153.552 116.119C153.681 115.936 153.92 115.857 154.144 115.909C155.588 116.263 160.505 117.272 162.147 115.077C164.074 112.496 159.463 108.12 159.463 108.12C159.463 108.12 164.074 114.448 159.184 114.245C154.294 114.049 154.784 113.033 153.443 113.315C152.101 113.597 151.481 116.034 149.316 114.521C147.15 113.007 152.646 99.5044 147.688 94.0077Z" fill="url(#paint22_linear_164_1048)"/>
<path d="M142.135 46.8896C142.135 46.8896 132.907 27.425 118.026 29.1939C103.145 30.9628 87.7527 47.2434 93.7188 70.1999C99.6848 93.1498 112.523 102.171 105.937 117.541C96.477 139.62 102.014 167.529 153.154 152.782C153.154 152.782 142.87 153.312 136.993 148.451C136.993 148.451 142.509 150.574 145.261 149.205C145.261 149.205 131.851 146.512 127.165 141.12C122.48 135.735 123.923 127.205 121.043 116.742C118.162 106.273 116.786 99.9176 108.109 87.5942C99.4328 75.2707 100.666 65.1486 117.27 47.512C125.599 41.8318 142.121 46.9027 142.121 46.9027L142.135 46.8896Z" fill="url(#paint23_linear_164_1048)"/>
<path d="M142.153 46.8891C142.153 46.8891 113.1 40.8748 102.918 71.6538C102.918 71.6538 104.886 34.6509 142.153 46.8891Z" fill="url(#paint24_linear_164_1048)"/>
<path d="M165.126 95.0233C165.126 95.0233 165.351 83.3878 174.92 81.5272C184.489 79.6665 188.071 86.3622 190.557 87.1615C190.557 87.1615 186.464 98.4432 165.126 95.0233Z" fill="url(#paint25_linear_164_1048)"/>
<path d="M190.655 87.1613C190.655 87.1613 188.101 92.6842 181.031 94.5645C181.031 94.5645 176.073 92.7891 176.169 88.0916C176.264 83.3942 180.309 81.6777 180.309 81.6777C180.309 81.6777 183.81 81.5073 190.661 87.1613H190.655Z" fill="url(#paint26_linear_164_1048)"/>
<path d="M167.013 92.8154C167.013 92.8154 174.307 97.1656 181.553 94.3288C188.8 91.492 190.53 87.2531 190.53 87.2531C190.53 87.2531 191.565 89.4938 187.063 92.6713C182.561 95.8487 171.045 96.2811 169.567 95.6718C168.089 95.0626 167.006 92.8088 167.006 92.8088L167.013 92.8154Z" fill="#2E1308"/>
<path d="M166.764 92.717C166.764 92.717 165.327 84.3114 174.358 81.9856C182.258 79.9481 188.374 85.4513 188.374 85.4513C188.374 85.4513 190.928 85.91 191.432 84.8486C191.432 84.8486 190.424 85.0714 189.042 84.4097C187.659 83.748 183.266 78.1464 173.854 80.7998C164.442 83.4466 166.764 92.7235 166.764 92.7235V92.717Z" fill="#2E1308"/>
<path d="M164.422 90.457C165.614 82.8965 170.865 75.0019 179.896 77.8715C182.776 78.8084 185.358 80.4397 187.632 82.3069C185.977 81.2324 184.288 80.2235 182.497 79.3914C172.465 74.7268 166.806 81.6779 164.422 90.457Z" fill="#75291F"/>
<path d="M182.842 93.2737C185.49 93.2737 187.636 91.0298 187.636 88.2618C187.636 85.4938 185.49 83.2499 182.842 83.2499C180.194 83.2499 178.047 85.4938 178.047 88.2618C178.047 91.0298 180.194 93.2737 182.842 93.2737Z" fill="#76CEA0"/>
<path d="M183.608 92.4814C186.113 92.4814 188.144 90.3607 188.144 87.7446C188.144 85.1286 186.113 83.0079 183.608 83.0079C181.103 83.0079 179.072 85.1286 179.072 87.7446C179.072 90.3607 181.103 92.4814 183.608 92.4814Z" fill="#050706"/>
<path d="M181.355 86.5118C181.773 86.5118 182.111 86.1013 182.111 85.595C182.111 85.0886 181.773 84.6782 181.355 84.6782C180.938 84.6782 180.6 85.0886 180.6 85.595C180.6 86.1013 180.938 86.5118 181.355 86.5118Z" fill="#76CEA0"/>
<path d="M182.836 86.1979C183.11 86.1979 183.333 85.9282 183.333 85.5954C183.333 85.2627 183.11 84.993 182.836 84.993C182.561 84.993 182.338 85.2627 182.338 85.5954C182.338 85.9282 182.561 86.1979 182.836 86.1979Z" fill="#76CEA0"/>
<path d="M165.131 95.0233C165.131 95.0233 164.838 91.171 166.718 87.9411C166.718 87.9411 165.267 92.6713 169.558 95.6719L165.124 95.0233H165.131Z" fill="#F4ECE9"/>
<path d="M123.673 93.8111C123.673 93.8111 126.703 84.0362 136.899 86.2572C146.27 88.3799 146.059 98.8099 146.059 98.8099C146.059 98.8099 138.588 101.693 131.838 101.031C125.089 100.369 123.196 96.3662 123.679 93.8111H123.673Z" fill="url(#paint27_linear_164_1048)"/>
<path d="M146.033 98.8101C146.033 98.8101 146.033 89.6118 138.991 86.9388C138.991 86.9388 131.451 87.5677 132.132 94.3813C132.813 101.195 137.594 101.843 146.033 98.8101Z" fill="url(#paint28_linear_164_1048)"/>
<path d="M138.511 99.1374C141.159 99.1374 143.305 96.8934 143.305 94.1254C143.305 91.3574 141.159 89.1135 138.511 89.1135C135.863 89.1135 133.716 91.3574 133.716 94.1254C133.716 96.8934 135.863 99.1374 138.511 99.1374Z" fill="#76CEA0"/>
<path d="M139.277 98.3447C141.782 98.3447 143.813 96.224 143.813 93.608C143.813 90.9919 141.782 88.8712 139.277 88.8712C136.772 88.8712 134.741 90.9919 134.741 93.608C134.741 96.224 136.772 98.3447 139.277 98.3447Z" fill="#050706"/>
<path d="M137.02 92.3753C137.437 92.3753 137.776 91.9649 137.776 91.4585C137.776 90.9522 137.437 90.5417 137.02 90.5417C136.602 90.5417 136.264 90.9522 136.264 91.4585C136.264 91.9649 136.602 92.3753 137.02 92.3753Z" fill="#76CEA0"/>
<path d="M138.5 92.0611C138.774 92.0611 138.997 91.7914 138.997 91.4586C138.997 91.1259 138.774 90.8561 138.5 90.8561C138.225 90.8561 138.003 91.1259 138.003 91.4586C138.003 91.7914 138.225 92.0611 138.5 92.0611Z" fill="#76CEA0"/>
<path d="M146.053 98.8101C146.053 98.8101 146.278 85.2746 128.06 88.7666C128.06 88.7666 131.649 83.8726 140.053 87.2466C146.06 89.9131 146.06 98.8035 146.06 98.8035L146.053 98.8101Z" fill="url(#paint29_linear_164_1048)"/>
<path d="M120.492 94.2439C120.492 94.2439 121.922 95.2004 122.208 94.5387C122.208 94.5387 125.11 82.7918 137.362 85.9562C146.249 88.4195 146.038 98.3779 146.038 98.3779C146.038 98.3779 145.616 88.5506 137.947 86.6834C130.279 84.8162 126.581 89.2057 123.482 95.2266C123.482 95.2266 122.181 97.192 120.492 94.2373V94.2439Z" fill="#2E1308"/>
<path d="M146.038 98.8101C146.038 98.8101 128.787 104.543 124.823 96.9888C124.823 96.9888 124.108 96.1305 124.245 93.8113C124.245 93.8113 123.4 95.4426 122.787 95.6457C122.787 95.6457 124.953 101.758 134.011 101.359C141.584 101.025 146.038 98.8101 146.038 98.8101Z" fill="#2E1308"/>
<path opacity="0.4" d="M110.385 121.321C110.385 121.321 103.132 133.16 107.355 142.522C111.577 151.884 121.861 152.86 121.861 152.86C121.861 152.86 103.125 150.914 110.385 121.328V121.321Z" fill="#F28760"/>
<path opacity="0.4" d="M115.63 123.64C115.63 123.64 108.036 150.259 132.881 146.675C132.881 146.675 114.343 150.698 115.63 123.64Z" fill="#F28760"/>
<path d="M210.183 82.6342L210.415 97.6961C210.415 97.6961 216.292 94.4269 215.509 84.7568L210.183 82.6342Z" fill="url(#paint30_linear_164_1048)"/>
<path d="M210.408 98.024C210.354 98.024 210.292 98.0109 210.238 97.9846C210.136 97.9257 210.068 97.8209 210.068 97.7029L209.836 82.641C209.836 82.5296 209.891 82.4248 209.986 82.3658C210.081 82.3003 210.204 82.2938 210.306 82.3331L215.632 84.4558C215.748 84.5016 215.829 84.613 215.843 84.7309C216.633 94.4927 210.824 97.8405 210.578 97.9781C210.524 98.0043 210.469 98.024 210.408 98.024ZM210.524 83.1258L210.735 97.0609C212.097 96.0126 215.714 92.4945 215.176 84.9799L210.524 83.1258Z" fill="url(#paint31_linear_164_1048)"/>
<path d="M146.408 48.743L142.138 46.8889C142.138 46.8889 122.578 22.9955 161.33 6.91812C200.082 -9.15932 219.192 25.1444 225.798 41.5888C232.404 58.0331 228.734 66.3142 244.895 77.2683C261.056 88.2225 266.927 95.9598 262.521 114.337C262.521 114.337 259.218 96.3136 235.156 89.7817C211.094 83.2433 189.198 76.0432 182.265 51.9729C173.425 21.279 146.912 39.5185 146.408 48.7496V48.743Z" fill="#A12B16"/>
<path d="M146.373 48.6118C146.373 48.6118 147.238 25.7077 170.632 29.8286C194.027 33.9495 195.648 55.563 195.648 55.563L201.743 44.8971C201.743 44.8971 187.788 10.6261 157.481 24.7578C142.239 32.8816 146.373 48.6053 146.373 48.6053V48.6118Z" fill="url(#paint32_linear_164_1048)"/>
<path d="M146.372 48.6121C146.372 48.6121 151.466 32.7116 168.411 36.8194C185.356 40.9272 176.815 69.2363 204.915 83.9051C204.915 83.9051 206.523 80.767 204.18 78.5132C204.18 78.5132 213.674 83.8396 222.071 85.9623C222.071 85.9623 221.165 83.0666 211.937 76.3054C202.709 69.5508 197.471 64.113 194.72 52.0582C191.969 40.0034 183.013 27.811 166.62 27.811C150.227 27.811 147.06 40.0034 146.372 48.6121Z" fill="url(#paint33_linear_164_1048)"/>
<path d="M153.325 31.9913C153.325 31.9913 169.725 21.8889 186.499 36.1581C186.499 36.1581 171.707 18.5935 153.325 31.9913Z" fill="url(#paint34_radial_164_1048)"/>
<path d="M109.063 54.0958C109.063 54.0958 120.736 39.0994 141.644 46.7974C141.644 46.7974 121.39 35.3388 109.063 54.0958Z" fill="url(#paint35_radial_164_1048)"/>
<path d="M99.7874 39.8135C99.7874 39.8135 111.113 25.256 131.218 33.2423C131.218 33.2423 116.521 20.6699 99.7874 39.8135Z" fill="url(#paint36_radial_164_1048)"/>
<path d="M171.057 31.9256C171.057 31.9256 185.175 36.1841 184.726 52.5498C184.726 52.5498 188.145 35.6862 171.057 31.9256Z" fill="url(#paint37_radial_164_1048)"/>
<path d="M189.39 50.0536C189.39 50.0536 186.979 60.0775 197.747 65.7969C197.747 65.7969 185.57 61.676 189.39 50.0536Z" fill="url(#paint38_radial_164_1048)"/>
<path d="M178.11 22.3471C178.11 22.3471 187.311 23.4085 192.76 29.2983C198.201 35.1881 207.225 41.5103 207.225 41.5103C207.225 41.5103 200.646 39.9969 192.678 31.362C184.71 22.7271 178.117 22.3537 178.117 22.3537L178.11 22.3471Z" fill="url(#paint39_radial_164_1048)"/>
<path d="M214.608 43.4238C214.608 43.4238 220.485 57.765 231.696 61.1325L233.017 64.5983C233.017 64.5983 226.724 63.4387 221.95 57.8502C217.176 52.2618 214.601 43.4238 214.601 43.4238H214.608Z" fill="url(#paint40_radial_164_1048)"/>
<path d="M142.463 27.7126C142.375 27.9353 146.386 13.7316 170.768 9.62384C170.768 9.62384 147.421 15.5464 142.463 27.7126Z" fill="url(#paint41_radial_164_1048)"/>
<path d="M147.838 171.846L139.454 172.187C139.454 172.187 125.997 182.899 120.555 194.888C120.555 194.888 125.166 193.932 129.763 200.915C129.763 200.915 134.864 176.852 147.838 171.84V171.846Z" fill="url(#paint42_linear_164_1048)"/>
<path d="M139.453 172.187C139.453 172.187 125.532 185.958 120.853 193.643C120.853 193.643 119.92 192.549 118.857 192.817C118.857 192.817 128.896 179.983 139.453 172.187Z" fill="url(#paint43_linear_164_1048)"/>
<path d="M146.372 48.6121C146.372 48.6121 165.169 27.9945 180.615 51.2917C180.615 51.2917 179.138 36.898 164.468 35.6401C149.798 34.3822 146.372 48.6121 146.372 48.6121Z" fill="#5D150B"/>
<path d="M143.157 33.236C143.137 33.3801 143.457 24.5028 157.187 18.8554C157.187 18.8554 144.322 25.4331 143.157 33.236Z" fill="url(#paint44_radial_164_1048)"/>
<path d="M144.822 283.163L198.053 282.652V277.509L141.996 280.333C141.996 280.333 142.316 281.964 144.822 283.156V283.163Z" fill="url(#paint45_linear_164_1048)"/>
<path d="M139.477 292.833C139.477 292.833 144.408 291.045 144.81 283.163L198.041 282.652L197.557 291.372L139.477 292.827V292.833Z" fill="url(#paint46_linear_164_1048)"/>
<path d="M32.2745 272.471C32.2745 272.471 29.3528 272.117 29.0599 270.171L18.5921 200.031C18.5921 200.031 15.6091 188.316 33.2825 189.43C47.319 190.315 113.817 193.053 113.817 193.053C113.817 193.053 122.446 193.138 124.564 205.246C126.682 217.353 139.717 273.971 139.717 273.971C139.717 273.971 141.093 280.948 144.955 283.156L32.2813 272.471H32.2745Z" fill="url(#paint47_linear_164_1048)"/>
<path d="M33.2802 189.437C47.3303 190.053 113.815 193.06 113.815 193.06C113.815 193.06 122.444 193.145 124.562 205.252C126.673 217.353 139.715 273.978 139.715 273.978C139.715 273.978 128.41 215.787 126.299 203.686C124.187 191.586 115.551 191.494 115.551 191.494C115.551 191.494 49.067 188.493 35.0169 187.871C28.8466 187.602 24.1881 189.017 22.1109 191.363C25.8159 189.456 28.5605 189.234 33.2802 189.443V189.437Z" fill="url(#paint48_linear_164_1048)"/>
<path d="M32.2679 272.471V279.448C32.2679 279.448 31.0284 284.283 43.9753 285.607C56.9221 286.93 139.677 292.826 139.677 292.826C139.677 292.826 144.935 289.976 144.935 283.156C144.935 283.156 125.817 278.826 84.9542 275.648C44.091 272.471 32.2611 272.471 32.2611 272.471H32.2679Z" fill="url(#paint49_radial_164_1048)"/>
<path d="M144.145 287.506C144.683 286.432 145.024 283.851 145.024 283.163C145.024 283.163 125.906 278.832 85.0432 275.655C44.18 272.477 32.3501 272.477 32.3501 272.477V276.808C32.3501 276.808 43.9075 276.814 84.7776 279.998C123.57 283.019 142.299 287.113 144.145 287.513V287.506Z" fill="url(#paint50_linear_164_1048)"/>
<path d="M130.139 198.95C130.139 198.95 127.932 206.373 132.346 214.654C136.752 222.935 141.853 232.081 142.95 236.916C142.95 236.916 152.042 225.254 159.751 219.561C167.468 213.861 186.714 200.345 186.714 200.345C186.714 200.345 155.447 206.772 149.59 210.481C149.59 210.481 135.158 201.007 130.132 198.95H130.139Z" fill="url(#paint51_linear_164_1048)"/>
<path d="M142.946 236.91C157.03 221.14 172.197 210.612 172.197 210.612C155.28 216.869 142.353 228.943 142.353 228.943C140.978 222.496 131.198 212.178 131.198 212.178C133.833 217.393 142.953 236.916 142.953 236.916L142.946 236.91Z" fill="url(#paint52_linear_164_1048)"/>
<path d="M192.144 101.483C192.627 104.346 188.915 107.307 183.855 108.093C178.795 108.88 174.307 107.189 173.83 104.326L173.517 102.439C173.278 101.031 174.572 99.8319 176.03 100.114C177.712 100.441 179.987 100.644 182.541 100.245C184.87 99.8843 186.791 99.0588 188.234 98.2398C189.678 97.4209 191.599 98.2529 191.871 99.8843L192.137 101.483H192.144Z" fill="url(#paint53_radial_164_1048)"/>
<path d="M144.862 108.434C145.346 111.297 141.634 114.259 136.574 115.045C131.513 115.831 127.025 114.141 126.548 111.278L126.235 109.391C125.997 107.982 127.291 106.783 128.748 107.065C130.43 107.393 132.705 107.596 135.259 107.196C137.588 106.836 139.509 106.01 140.953 105.191C142.397 104.372 144.317 105.204 144.59 106.836L144.855 108.434H144.862Z" fill="url(#paint54_radial_164_1048)"/>
<path d="M231.703 240.985C231.703 240.985 256.214 228.727 267.138 226.788C267.138 226.788 273.806 242.885 275.733 260.109C277.66 277.333 276.421 292.971 276.421 292.971C276.421 292.971 275.733 297.872 272.702 300.525C269.672 303.172 265.538 305.426 258.788 305.956C252.039 306.487 234.27 302.11 216.365 297.479C198.461 292.84 184.41 288.686 184.41 288.686C184.41 288.686 176.694 287.009 170.088 281.264C163.475 275.524 152.592 272.642 141.484 279.043C141.484 279.043 140.585 278.243 139.87 274.601L137.874 264.413C137.874 264.413 146.033 257.324 161.554 260.417C177.076 263.509 179.275 271.371 186.624 273.841C193.972 276.311 208.847 271.81 240.066 271.194C240.066 271.194 237.587 254.677 231.71 240.985H231.703Z" fill="url(#paint55_linear_164_1048)"/>
<path opacity="0.8" d="M270.333 235.815C268.508 230.057 267.139 226.781 267.139 226.781C256.215 228.727 231.704 240.978 231.704 240.978C232.065 241.823 232.419 242.681 232.753 243.546C233.652 243.35 240.272 243.749 250.208 239.452C260.145 235.16 267.657 235.704 270.327 235.809L270.333 235.815Z" fill="#B74E18"/>
<path opacity="0.8" d="M231.701 240.985L240.058 271.22C240.058 271.22 251.309 271.22 264.896 278.905C264.896 278.905 258.194 272.367 241.202 269.543L232.559 240.539L231.694 240.985H231.701Z" fill="#CB6F1E"/>
<path opacity="0.8" d="M192.018 289.97C174.522 286.124 169.707 280.031 169.707 280.031C169.707 280.031 169.278 280.09 168.835 280.261C169.244 280.582 169.652 280.922 170.047 281.263C176.66 287.002 184.37 288.686 184.37 288.686C184.37 288.686 198.42 292.84 216.325 297.478C234.23 302.117 251.998 306.486 258.748 305.956C263.91 305.55 267.54 304.134 270.319 302.307V302.293C265.088 300.701 257.719 300.04 245.392 300.04C233.065 300.04 209.507 293.809 192.018 289.97Z" fill="url(#paint56_linear_164_1048)"/>
<path d="M139.212 270.27C144.974 266.89 152.05 266.202 158.67 266.47C159.623 266.549 160.577 266.628 161.524 266.739C153.978 266.85 146.193 267.296 139.212 270.27Z" fill="#B94313"/>
<path d="M138.51 266.621C142.569 263.109 148.549 262.474 153.8 262.749C153.133 262.847 152.465 262.906 151.805 262.985C147.255 263.581 142.467 264.242 138.51 266.627V266.621Z" fill="#B94313"/>
<path d="M140.368 274.666C145.374 270.578 152.403 269.726 158.757 269.935C159.676 270.014 160.596 270.086 161.515 270.191C160.589 270.237 159.676 270.23 158.757 270.257C152.457 270.545 145.796 271.318 140.375 274.666H140.368Z" fill="#B94313"/>
<path d="M204.102 78.5131C204.102 78.5131 215.7 87.7179 219.112 91.5833C219.112 91.5833 219.63 87.6066 219.303 85.0711L204.102 78.5131Z" fill="url(#paint57_linear_164_1048)"/>
<path d="M130.141 198.95C130.141 198.95 134.657 177.481 147.842 171.853C147.842 171.853 137.953 174.906 130.141 198.95Z" fill="url(#paint58_linear_164_1048)"/>
<path d="M209.024 163.506C209.024 163.506 214.248 180.73 186.713 200.339C186.713 200.339 209.024 184.569 209.024 163.506Z" fill="url(#paint59_linear_164_1048)"/>
<path d="M189.527 274.443C189.527 274.443 250.175 286.983 264.893 278.911C264.893 278.911 253.798 271.96 240.055 271.227C240.055 271.227 214.243 272.163 189.527 274.443Z" fill="url(#paint60_linear_164_1048)"/>
<path d="M227.721 90.2274C227.721 90.2274 232.958 105.597 227.721 119.644C222.484 133.69 220.699 146.145 233.231 149.984C245.762 153.83 259.955 146.276 266.01 159.791C272.065 173.307 266.698 182.584 266.698 182.584C266.698 182.584 280.06 178.607 279.508 167.745C278.957 156.883 273.175 144.821 254.99 141.644C236.806 138.466 235.294 126.936 238.189 115.543C241.083 104.149 238.325 95.9338 227.721 90.234V90.2274Z" fill="url(#paint61_radial_164_1048)"/>
<path d="M216.371 151.497C216.371 151.497 215.308 144.769 210.902 140.15C206.496 135.531 203.567 131.004 207.156 127.604C210.738 124.204 217.011 124.951 216.582 118.812C216.146 112.673 212.584 109.915 212.584 109.915C212.584 109.915 217.903 109.404 219.735 113.682C221.567 117.96 221.819 123.496 216.173 127.499C210.527 131.502 212.148 136.187 215.261 140.137C218.373 144.088 218.952 147.678 216.371 151.497Z" fill="url(#paint62_radial_164_1048)"/>
<path d="M244.157 99.773C244.157 99.773 251.322 112.627 242.366 127.204C242.366 127.204 255.313 117.534 244.157 99.773Z" fill="url(#paint63_radial_164_1048)"/>
<path d="M248.061 155.992C248.061 155.992 262.418 161.94 259.789 179.439C259.789 179.439 269.296 163.414 248.061 155.992Z" fill="url(#paint64_radial_164_1048)"/>
<defs>
<linearGradient id="paint0_linear_164_1048" x1="190.576" y1="206.334" x2="190.576" y2="0.60285" gradientUnits="userSpaceOnUse">
<stop offset="0.17" stop-color="#560A05"/>
<stop offset="1" stop-color="#250401"/>
</linearGradient>
<radialGradient id="paint1_radial_164_1048" cx="0" cy="0" r="1" gradientTransform="matrix(4.84477 -70.7275 92.6399 5.87226 185.593 220.016)" gradientUnits="userSpaceOnUse">
<stop stop-color="#05AF12"/>
<stop offset="1" stop-color="#00910B"/>
</radialGradient>
<linearGradient id="paint2_linear_164_1048" x1="187.782" y1="280.326" x2="187.782" y2="186.731" gradientUnits="userSpaceOnUse">
<stop stop-color="#005506"/>
<stop offset="1" stop-color="#005506" stop-opacity="0"/>
</linearGradient>
<linearGradient id="paint3_linear_164_1048" x1="229.598" y1="240.722" x2="217.918" y2="205.016" gradientUnits="userSpaceOnUse">
<stop stop-color="#DFF1F1" stop-opacity="0.7"/>
<stop offset="1" stop-color="#DFF1F1" stop-opacity="0"/>
</linearGradient>
<linearGradient id="paint4_linear_164_1048" x1="234.186" y1="232.33" x2="259.954" y2="218.9" gradientUnits="userSpaceOnUse">
<stop stop-color="#007709"/>
<stop offset="1" stop-color="#006C08"/>
</linearGradient>
<linearGradient id="paint5_linear_164_1048" x1="223.748" y1="242.773" x2="223.748" y2="186.732" gradientUnits="userSpaceOnUse">
<stop offset="0.57" stop-color="#005506"/>
<stop offset="1" stop-color="#005506" stop-opacity="0.15"/>
</linearGradient>
<linearGradient id="paint6_linear_164_1048" x1="206.061" y1="238.416" x2="191.669" y2="213.623" gradientUnits="userSpaceOnUse">
<stop stop-color="#1AD028" stop-opacity="0.5"/>
<stop offset="1" stop-color="#25D033" stop-opacity="0"/>
</linearGradient>
<linearGradient id="paint7_linear_164_1048" x1="187.977" y1="259.873" x2="187.977" y2="171.558" gradientUnits="userSpaceOnUse">
<stop stop-color="#184237" stop-opacity="0.5"/>
<stop offset="1" stop-color="#498E76" stop-opacity="0.6"/>
</linearGradient>
<linearGradient id="paint8_linear_164_1048" x1="169.572" y1="210.474" x2="169.572" y2="127.86" gradientUnits="userSpaceOnUse">
<stop stop-color="#E47535"/>
<stop offset="1" stop-color="#FEC989"/>
</linearGradient>
<linearGradient id="paint9_linear_164_1048" x1="149.609" y1="205.456" x2="157.687" y2="205.456" gradientUnits="userSpaceOnUse">
<stop stop-color="#D9530B"/>
<stop offset="1" stop-color="#D9530B" stop-opacity="0"/>
</linearGradient>
<radialGradient id="paint10_radial_164_1048" cx="0" cy="0" r="1" gradientUnits="userSpaceOnUse" gradientTransform="translate(166.501 92.1535) scale(56.2005 54.0631)">
<stop stop-color="#FFD79C"/>
<stop offset="1" stop-color="#FCAD6B"/>
</radialGradient>
<linearGradient id="paint11_linear_164_1048" x1="114.313" y1="56.2775" x2="121.365" y2="61.0079" gradientUnits="userSpaceOnUse">
<stop stop-color="#57110B"/>
<stop offset="1" stop-color="#57110B" stop-opacity="0.1"/>
</linearGradient>
<linearGradient id="paint12_linear_164_1048" x1="116.556" y1="78.2183" x2="138.514" y2="78.2183" gradientUnits="userSpaceOnUse">
<stop stop-color="#75291F"/>
<stop offset="0.51" stop-color="#2F0E09"/>
<stop offset="1" stop-color="#3F1607"/>
</linearGradient>
<linearGradient id="paint13_linear_164_1048" x1="175.294" y1="64.978" x2="175.294" y2="75.408" gradientUnits="userSpaceOnUse">
<stop stop-color="#2F0E09"/>
<stop offset="1" stop-color="#75291F"/>
</linearGradient>
<linearGradient id="paint14_linear_164_1048" x1="159.825" y1="128.2" x2="161.237" y2="133.861" gradientUnits="userSpaceOnUse">
<stop stop-color="#D6B585"/>
<stop offset="0.37" stop-color="#F9DEB1"/>
</linearGradient>
<radialGradient id="paint15_radial_164_1048" cx="0" cy="0" r="1" gradientUnits="userSpaceOnUse" gradientTransform="translate(159.95 126.261) scale(14.9491 14.3806)">
<stop stop-color="#D95E33"/>
<stop offset="1" stop-color="#D33520"/>
</radialGradient>
<radialGradient id="paint16_radial_164_1048" cx="0" cy="0" r="1" gradientUnits="userSpaceOnUse" gradientTransform="translate(160.914 132.183) scale(17.2034 16.5491)">
<stop stop-color="#D33520"/>
<stop offset="0.33" stop-color="#D43C23"/>
<stop offset="0.72" stop-color="#D7522D"/>
<stop offset="1" stop-color="#D95E33"/>
</radialGradient>
<linearGradient id="paint17_linear_164_1048" x1="154.444" y1="114.442" x2="154.356" y2="120.056" gradientUnits="userSpaceOnUse">
<stop stop-color="#E56D29"/>
<stop offset="1" stop-color="#FEC688"/>
</linearGradient>
<linearGradient id="paint18_linear_164_1048" x1="150.757" y1="115.005" x2="150.247" y2="94.0984" gradientUnits="userSpaceOnUse">
<stop stop-color="white" stop-opacity="0.3"/>
<stop offset="0.99" stop-color="white" stop-opacity="0"/>
</linearGradient>
<linearGradient id="paint19_linear_164_1048" x1="117.716" y1="33.2422" x2="143.153" y2="33.2422" gradientUnits="userSpaceOnUse">
<stop stop-color="#631601"/>
<stop offset="1" stop-color="#631601" stop-opacity="0"/>
</linearGradient>
<linearGradient id="paint20_linear_164_1048" x1="146.379" y1="56.0547" x2="190.089" y2="56.0547" gradientUnits="userSpaceOnUse">
<stop stop-color="#8E3017"/>
<stop offset="1" stop-color="#9B4B24" stop-opacity="0.1"/>
</linearGradient>
<linearGradient id="paint21_linear_164_1048" x1="134.302" y1="22.8518" x2="181.166" y2="22.8518" gradientUnits="userSpaceOnUse">
<stop stop-color="#5C110B"/>
<stop offset="1" stop-color="#670F0B"/>
</linearGradient>
<linearGradient id="paint22_linear_164_1048" x1="152.162" y1="94.5646" x2="154.73" y2="117.793" gradientUnits="userSpaceOnUse">
<stop stop-color="#FFBA81"/>
<stop offset="0.49" stop-color="#FFBA81"/>
<stop offset="0.8" stop-color="#FFBA81"/>
<stop offset="0.99" stop-color="#CE571B"/>
</linearGradient>
<linearGradient id="paint23_linear_164_1048" x1="122.779" y1="156.896" x2="122.779" y2="29.076" gradientUnits="userSpaceOnUse">
<stop stop-color="#952A18"/>
<stop offset="0.59" stop-color="#6B1711"/>
<stop offset="1" stop-color="#A42A1C"/>
</linearGradient>
<linearGradient id="paint24_linear_164_1048" x1="100.024" y1="67.9064" x2="135.491" y2="40.521" gradientUnits="userSpaceOnUse">
<stop stop-color="#741A13"/>
<stop offset="1" stop-color="#E05B2A"/>
</linearGradient>
<linearGradient id="paint25_linear_164_1048" x1="177.842" y1="95.6719" x2="177.842" y2="81.2061" gradientUnits="userSpaceOnUse">
<stop stop-color="#E3CCBB"/>
<stop offset="0.99" stop-color="#FCFAEC"/>
</linearGradient>
<linearGradient id="paint26_linear_164_1048" x1="176.17" y1="88.0837" x2="190.661" y2="88.0837" gradientUnits="userSpaceOnUse">
<stop stop-color="#317B32"/>
<stop offset="1" stop-color="#204A0A"/>
</linearGradient>
<linearGradient id="paint27_linear_164_1048" x1="123.598" y1="93.5294" x2="146.052" y2="93.5294" gradientUnits="userSpaceOnUse">
<stop stop-color="#FCFAEC"/>
<stop offset="1" stop-color="#E3CCBB"/>
</linearGradient>
<linearGradient id="paint28_linear_164_1048" x1="132.092" y1="93.7" x2="146.033" y2="93.7" gradientUnits="userSpaceOnUse">
<stop stop-color="#317B32"/>
<stop offset="1" stop-color="#204A0A"/>
</linearGradient>
<linearGradient id="paint29_linear_164_1048" x1="128.06" y1="92.4354" x2="146.053" y2="92.4354" gradientUnits="userSpaceOnUse">
<stop stop-color="#E1824C" stop-opacity="0.7"/>
<stop offset="1" stop-color="#A84E1C"/>
</linearGradient>
<linearGradient id="paint30_linear_164_1048" x1="212.88" y1="97.6961" x2="212.88" y2="82.6342" gradientUnits="userSpaceOnUse">
<stop stop-color="#FCB473"/>
<stop offset="1" stop-color="#B23A0F" stop-opacity="0.8"/>
</linearGradient>
<linearGradient id="paint31_linear_164_1048" x1="212.88" y1="98.024" x2="212.88" y2="82.3069" gradientUnits="userSpaceOnUse">
<stop stop-color="#FDB473"/>
<stop offset="1" stop-color="#B23A0F"/>
</linearGradient>
<linearGradient id="paint32_linear_164_1048" x1="145.863" y1="38.4504" x2="201.743" y2="38.4504" gradientUnits="userSpaceOnUse">
<stop stop-color="#631601"/>
<stop offset="1" stop-color="#631601" stop-opacity="0"/>
</linearGradient>
<linearGradient id="paint33_linear_164_1048" x1="157.255" y1="35.7515" x2="217.28" y2="79.8228" gradientUnits="userSpaceOnUse">
<stop stop-color="#E05B2A"/>
<stop offset="1" stop-color="#E05B2A" stop-opacity="0.2"/>
</linearGradient>
<radialGradient id="paint34_radial_164_1048" cx="0" cy="0" r="1" gradientUnits="userSpaceOnUse" gradientTransform="translate(169.916 31.5524) scale(12.2045 11.7403)">
<stop stop-color="#F9CDA6"/>
<stop offset="1" stop-color="#E05B2A" stop-opacity="0.7"/>
</radialGradient>
<radialGradient id="paint35_radial_164_1048" cx="0" cy="0" r="1" gradientTransform="matrix(11.4286 -4.11922 4.28208 10.994 124.436 48.0812)" gradientUnits="userSpaceOnUse">
<stop stop-color="#F9CDA6"/>
<stop offset="1" stop-color="#E05B2A" stop-opacity="0.7"/>
</radialGradient>
<radialGradient id="paint36_radial_164_1048" cx="0" cy="0" r="1" gradientTransform="matrix(10.9541 -3.9482 4.32031 11.0921 114.276 34.5602)" gradientUnits="userSpaceOnUse">
<stop stop-color="#F9CDA6"/>
<stop offset="1" stop-color="#E05B2A" stop-opacity="0.7"/>
</radialGradient>
<radialGradient id="paint37_radial_164_1048" cx="0" cy="0" r="1" gradientTransform="matrix(5.9575 6.83955 -7.10995 5.73093 179.438 40.9682)" gradientUnits="userSpaceOnUse">
<stop stop-color="#F9CDA6"/>
<stop offset="1" stop-color="#E05B2A" stop-opacity="0.7"/>
</radialGradient>
<radialGradient id="paint38_radial_164_1048" cx="0" cy="0" r="1" gradientTransform="matrix(2.25025 6.0724 6.31247 -2.16467 192.314 58.4376)" gradientUnits="userSpaceOnUse">
<stop stop-color="#F9CDA6"/>
<stop offset="1" stop-color="#E05B2A" stop-opacity="0.7"/>
</radialGradient>
<radialGradient id="paint39_radial_164_1048" cx="0" cy="0" r="1" gradientTransform="matrix(12.4694 0.129805 -0.134937 11.9951 192.662 31.9155)" gradientUnits="userSpaceOnUse">
<stop stop-color="#F9CDA6" stop-opacity="0.7"/>
<stop offset="1" stop-color="#F9CDA6" stop-opacity="0.2"/>
</radialGradient>
<radialGradient id="paint40_radial_164_1048" cx="0" cy="0" r="1" gradientUnits="userSpaceOnUse" gradientTransform="translate(223.816 54.011) scale(10.1477 9.76176)">
<stop stop-color="#F9CDA6" stop-opacity="0.7"/>
<stop offset="1" stop-color="#F9CDA6" stop-opacity="0.2"/>
</radialGradient>
<radialGradient id="paint41_radial_164_1048" cx="0" cy="0" r="1" gradientUnits="userSpaceOnUse" gradientTransform="translate(156.616 18.6715) scale(12.0138 11.5569)">
<stop stop-color="#F9CDA6" stop-opacity="0.7"/>
<stop offset="1" stop-color="#F9CDA6" stop-opacity="0.2"/>
</radialGradient>
<linearGradient id="paint42_linear_164_1048" x1="126.031" y1="197.188" x2="140.302" y2="170.732" gradientUnits="userSpaceOnUse">
<stop stop-color="#459B87" stop-opacity="0"/>
<stop offset="1" stop-color="#459B87"/>
</linearGradient>
<linearGradient id="paint43_linear_164_1048" x1="122.739" y1="193.512" x2="134.405" y2="171.879" gradientUnits="userSpaceOnUse">
<stop stop-color="#007709"/>
<stop offset="1" stop-color="#006C08"/>
</linearGradient>
<radialGradient id="paint44_radial_164_1048" cx="0" cy="0" r="1" gradientTransform="matrix(7.06101 -1.59566 1.65874 6.79246 150.176 26.0462)" gradientUnits="userSpaceOnUse">
<stop stop-color="#F9CDA6" stop-opacity="0.7"/>
<stop offset="1" stop-color="#F9CDA6" stop-opacity="0.2"/>
</radialGradient>
<linearGradient id="paint45_linear_164_1048" x1="143.337" y1="280.333" x2="167.011" y2="280.333" gradientUnits="userSpaceOnUse">
<stop stop-color="#C5DCB6"/>
<stop offset="1" stop-color="#5D795B"/>
</linearGradient>
<linearGradient id="paint46_linear_164_1048" x1="168.755" y1="292.591" x2="168.755" y2="284.1" gradientUnits="userSpaceOnUse">
<stop stop-color="#455C40"/>
<stop offset="1" stop-color="#273422"/>
</linearGradient>
<linearGradient id="paint47_linear_164_1048" x1="33.9431" y1="215.341" x2="148.076" y2="269.745" gradientUnits="userSpaceOnUse">
<stop stop-color="#7A855A"/>
<stop offset="0.81" stop-color="#D5E9B5"/>
</linearGradient>
<linearGradient id="paint48_linear_164_1048" x1="24.9169" y1="193.355" x2="133.008" y2="237.894" gradientUnits="userSpaceOnUse">
<stop stop-color="#D3D3D3"/>
<stop offset="1" stop-color="#EDF1F2"/>
</linearGradient>
<radialGradient id="paint49_radial_164_1048" cx="0" cy="0" r="1" gradientUnits="userSpaceOnUse" gradientTransform="translate(88.5911 282.652) scale(40.5431 39.0012)">
<stop stop-color="#99AA79"/>
<stop offset="1" stop-color="#76855B"/>
</radialGradient>
<linearGradient id="paint50_linear_164_1048" x1="88.5234" y1="279.743" x2="88.7693" y2="276.813" gradientUnits="userSpaceOnUse">
<stop stop-color="#61575A" stop-opacity="0"/>
<stop offset="0.59" stop-color="#625A5B" stop-opacity="0.7"/>
</linearGradient>
<linearGradient id="paint51_linear_164_1048" x1="152.968" y1="237.853" x2="157.613" y2="202.446" gradientUnits="userSpaceOnUse">
<stop stop-color="#EBF8CB"/>
<stop offset="1" stop-color="#F5FEE2"/>
</linearGradient>
<linearGradient id="paint52_linear_164_1048" x1="148.02" y1="237.316" x2="151.327" y2="212.091" gradientUnits="userSpaceOnUse">
<stop stop-color="#CED7A5"/>
<stop offset="1" stop-color="#DFEFBD"/>
</linearGradient>
<radialGradient id="paint53_radial_164_1048" cx="0" cy="0" r="1" gradientTransform="matrix(7.28848 -1.13056 1.17525 7.01128 183.085 103.544)" gradientUnits="userSpaceOnUse">
<stop stop-color="#EAE7E8" stop-opacity="0.5"/>
<stop offset="1" stop-color="#FCFDF9" stop-opacity="0"/>
</radialGradient>
<radialGradient id="paint54_radial_164_1048" cx="0" cy="0" r="1" gradientTransform="matrix(7.28847 -1.13056 1.17525 7.01128 135.799 110.495)" gradientUnits="userSpaceOnUse">
<stop stop-color="#EAE7E8" stop-opacity="0.5"/>
<stop offset="1" stop-color="#FCFDF9" stop-opacity="0"/>
</radialGradient>
<linearGradient id="paint55_linear_164_1048" x1="207.342" y1="231.524" x2="207.342" y2="303.585" gradientUnits="userSpaceOnUse">
<stop stop-color="#E47535"/>
<stop offset="1" stop-color="#F4A671"/>
</linearGradient>
<linearGradient id="paint56_linear_164_1048" x1="218.136" y1="305.255" x2="219.171" y2="294.424" gradientUnits="userSpaceOnUse">
<stop stop-color="#B74E18"/>
<stop offset="1" stop-color="#B74E18" stop-opacity="0.1"/>
</linearGradient>
<linearGradient id="paint57_linear_164_1048" x1="212.908" y1="82.8502" x2="211.9" y2="84.692" gradientUnits="userSpaceOnUse">
<stop stop-color="#57110B"/>
<stop offset="1" stop-color="#57110B" stop-opacity="0.1"/>
</linearGradient>
<linearGradient id="paint58_linear_164_1048" x1="130.427" y1="197.482" x2="143.896" y2="172.501" gradientUnits="userSpaceOnUse">
<stop stop-color="#16372B"/>
<stop offset="1" stop-color="#D2773F"/>
</linearGradient>
<linearGradient id="paint59_linear_164_1048" x1="195.198" y1="192.424" x2="206.632" y2="167.563" gradientUnits="userSpaceOnUse">
<stop stop-color="#E88242"/>
<stop offset="1" stop-color="#AD5A2B"/>
</linearGradient>
<linearGradient id="paint60_linear_164_1048" x1="227.21" y1="281.617" x2="227.21" y2="271.22" gradientUnits="userSpaceOnUse">
<stop stop-color="#EF975F"/>
<stop offset="1" stop-color="#FFB48A"/>
</linearGradient>
<radialGradient id="paint61_radial_164_1048" cx="0" cy="0" r="1" gradientUnits="userSpaceOnUse" gradientTransform="translate(240.341 128.456) scale(39.2559 37.7629)">
<stop stop-color="#A02916" stop-opacity="0.9"/>
<stop offset="1" stop-color="#A02916" stop-opacity="0.1"/>
</radialGradient>
<radialGradient id="paint62_radial_164_1048" cx="0" cy="0" r="1" gradientTransform="matrix(13.4798 -6.00815 -7.01762 -14.5698 213.269 134.942)" gradientUnits="userSpaceOnUse">
<stop stop-color="#A02916" stop-opacity="0.7"/>
<stop offset="1" stop-color="#A02916" stop-opacity="0.1"/>
</radialGradient>
<radialGradient id="paint63_radial_164_1048" cx="0" cy="0" r="1" gradientUnits="userSpaceOnUse" gradientTransform="translate(245.526 113.485) scale(10.3248 9.9321)">
<stop stop-color="#A02916" stop-opacity="0.7"/>
<stop offset="1" stop-color="#A02916" stop-opacity="0.1"/>
</radialGradient>
<radialGradient id="paint64_radial_164_1048" cx="0" cy="0" r="1" gradientTransform="matrix(11.4393 -6.50273 4.93467 8.03313 255.619 164.943)" gradientUnits="userSpaceOnUse">
<stop stop-color="#A02916" stop-opacity="0.7"/>
<stop offset="1" stop-color="#A02916" stop-opacity="0.1"/>
</radialGradient>
</defs>
</svg>
